<svg width="214" height="272" viewBox="0 0 214 272" fill="none" xmlns="http://www.w3.org/2000/svg">
<path d="M197.095 0H16.8938C7.57971 0 0 7.58545 0 16.9066V255.076C0 261.32 3.42382 267.035 8.91995 269.977C11.4315 271.329 14.1683 271.994 16.8938 271.994C20.1713 271.994 23.4374 271.036 26.2643 269.154L103.875 217.374C105.767 216.112 108.233 216.112 110.125 217.374L187.736 269.154C192.916 272.614 199.573 272.952 205.08 269.988C210.576 267.046 214 261.332 214 255.087V16.9066C213.989 7.58545 206.409 0 197.095 0Z" fill="white"/>
<path d="M197.095 0H16.8938C7.57971 0 0 7.58545 0 16.9066V255.076C0 261.32 3.42382 267.035 8.91995 269.977C11.4315 271.329 14.1683 271.994 16.8938 271.994C20.1713 271.994 23.4374 271.036 26.2643 269.154L103.875 217.374C105.767 216.112 108.233 216.112 110.125 217.374L187.736 269.154C192.916 272.614 199.573 272.952 205.08 269.988C210.576 267.046 214 261.332 214 255.087V16.9066C213.989 7.58545 206.409 0 197.095 0Z" fill="url(#paint0_linear_32_9)"/>
<defs>
<linearGradient id="paint0_linear_32_9" x1="107" y1="0" x2="107" y2="272" gradientUnits="userSpaceOnUse">
<stop stop-color="#FFDE00"/>
<stop offset="1" stop-color="#FF6100"/>
</linearGradient>
</defs>
</svg>
